<svg width="17" height="15" viewBox="0 0 17 15" fill="none" xmlns="http://www.w3.org/2000/svg">
<path d="M8.5 0C13.192 0 17 3.36 17 7.5C17 11.64 13.192 15 8.5 15C3.808 15 0 11.64 0 7.5C0 3.36 3.808 0 8.5 0ZM8.5 1.5C4.743 1.5 1.7 4.185 1.7 7.5C1.7 10.815 4.743 13.5 8.5 13.5C12.257 13.5 15.3 10.815 15.3 7.5C15.3 4.185 12.257 1.5 8.5 1.5ZM8.5 3.75C10.047 3.75 11.4011 4.47975 12.1448 5.571L10.6879 6.34275C10.4586 6.00543 10.1331 5.72704 9.74389 5.53533C9.35464 5.34363 8.91524 5.24531 8.4695 5.25017C8.02376 5.25504 7.58725 5.36292 7.2035 5.56307C6.81975 5.76321 6.50216 6.04862 6.28241 6.39084C6.06266 6.73306 5.94842 7.12013 5.95109 7.51346C5.95376 7.90678 6.07323 8.29262 6.29761 8.63249C6.52198 8.97237 6.84341 9.25441 7.22985 9.45049C7.61628 9.64657 8.05422 9.74984 8.5 9.75C8.94041 9.75025 9.37338 9.64979 9.75668 9.45841C10.14 9.26703 10.4605 8.99126 10.687 8.658L12.1448 9.429C11.6671 10.133 10.9409 10.6792 10.0775 10.984C9.21417 11.2888 8.26134 11.3353 7.36517 11.1163C6.46899 10.8973 5.67897 10.425 5.11627 9.77178C4.55356 9.11856 4.24925 8.3205 4.25 7.5C4.25 5.43 6.154 3.75 8.5 3.75Z" fill="black"/>
</svg>
