<svg width="66" height="63" viewBox="0 0 66 63" fill="none" xmlns="http://www.w3.org/2000/svg">
<path d="M36.1263 5.96851C42.5441 5.96851 43.3449 5.99333 45.8629 6.11743C48.3785 6.24154 50.0911 6.65605 51.5981 7.27162C53.1571 7.90208 54.4704 8.75593 55.7837 10.1335C56.9849 11.3743 57.9143 12.8752 58.5073 14.5318C59.0907 16.1129 59.4875 17.915 59.6056 20.5584C59.7167 23.2044 59.7474 24.0458 59.7474 30.7897C59.7474 37.5337 59.7237 38.3751 59.6056 41.021C59.4875 43.6645 59.0907 45.464 58.5073 47.0476C57.916 48.7051 56.9863 50.2064 55.7837 51.446C54.6026 52.7077 53.1744 53.6842 51.5981 54.3078C50.0934 54.9209 48.3785 55.3379 45.8629 55.462C43.3449 55.5787 42.5441 55.611 36.1263 55.611C29.7085 55.611 28.9077 55.5861 26.3897 55.462C23.8741 55.3379 22.1615 54.9209 20.6545 54.3078C19.0774 53.686 17.6488 52.7092 16.4689 51.446C15.2675 50.2054 14.3381 48.7044 13.7454 47.0476C13.1596 45.4665 12.7651 43.6645 12.647 41.021C12.536 38.3751 12.5052 37.5337 12.5052 30.7897C12.5052 24.0458 12.5289 23.2044 12.647 20.5584C12.7651 17.9125 13.1596 16.1154 13.7454 14.5318C14.3364 12.8742 15.2661 11.3729 16.4689 10.1335C17.6491 8.87068 19.0776 7.89396 20.6545 7.27162C22.1615 6.65605 23.8717 6.24154 26.3897 6.11743C28.9077 6.00077 29.7085 5.96851 36.1263 5.96851ZM36.1263 18.3791C32.994 18.3791 29.9899 19.6867 27.775 22.0141C25.5601 24.3415 24.3158 27.4982 24.3158 30.7897C24.3158 34.0812 25.5601 37.2379 27.775 39.5654C29.9899 41.8928 32.994 43.2003 36.1263 43.2003C39.2587 43.2003 42.2627 41.8928 44.4776 39.5654C46.6925 37.2379 47.9368 34.0812 47.9368 30.7897C47.9368 27.4982 46.6925 24.3415 44.4776 22.0141C42.2627 19.6867 39.2587 18.3791 36.1263 18.3791ZM51.48 17.7586C51.48 16.9357 51.1689 16.1465 50.6152 15.5647C50.0615 14.9828 49.3104 14.6559 48.5274 14.6559C47.7443 14.6559 46.9933 14.9828 46.4395 15.5647C45.8858 16.1465 45.5747 16.9357 45.5747 17.7586C45.5747 18.5815 45.8858 19.3706 46.4395 19.9525C46.9933 20.5344 47.7443 20.8612 48.5274 20.8612C49.3104 20.8612 50.0615 20.5344 50.6152 19.9525C51.1689 19.3706 51.48 18.5815 51.48 17.7586ZM36.1263 23.3434C38.0057 23.3434 39.8081 24.1279 41.1371 25.5244C42.466 26.9208 43.2126 28.8148 43.2126 30.7897C43.2126 32.7646 42.466 34.6586 41.1371 36.0551C39.8081 37.4516 38.0057 38.2361 36.1263 38.2361C34.2469 38.2361 32.4445 37.4516 31.1155 36.0551C29.7866 34.6586 29.04 32.7646 29.04 30.7897C29.04 28.8148 29.7866 26.9208 31.1155 25.5244C32.4445 24.1279 34.2469 23.3434 36.1263 23.3434Z" fill="black"/>
</svg>
