<svg width="66" height="63" viewBox="0 0 66 63" fill="none" xmlns="http://www.w3.org/2000/svg">
<path d="M60.9455 14.8469C58.846 15.7334 56.6196 16.3155 54.34 16.5742C56.7428 15.2024 58.5412 13.0436 59.4 10.4999C57.145 11.7809 54.6727 12.6787 52.096 13.1643C50.3651 11.3966 48.071 10.2242 45.5701 9.82946C43.0692 9.43472 40.5018 9.83972 38.2669 10.9815C36.0321 12.1233 34.255 13.9378 33.212 16.1431C32.169 18.3484 31.9185 20.8209 32.4995 23.1761C27.9265 22.9573 23.4529 21.8229 19.369 19.8467C15.2851 17.8704 11.6823 15.0964 8.79446 11.7048C7.77226 13.3807 7.23509 15.2859 7.23796 17.2252C7.23796 21.0314 9.26746 24.3941 12.353 26.3628C10.527 26.3079 8.7412 25.8372 7.14446 24.9899V25.1264C7.14501 27.6614 8.06398 30.1182 9.74554 32.0802C11.4271 34.0422 13.7678 35.3888 16.3707 35.8916C14.6757 36.33 12.8983 36.3947 11.1732 36.0805C11.9071 38.2625 13.3375 40.1708 15.2641 41.5382C17.1907 42.9056 19.5171 43.6636 21.9175 43.7062C19.5318 45.4947 16.8002 46.8168 13.8789 47.5969C10.9576 48.377 7.90381 48.5998 4.89221 48.2527C10.1494 51.4799 16.2692 53.1932 22.5197 53.1877C43.6755 53.1877 55.2447 36.4586 55.2447 21.9502C55.2447 21.4777 55.231 20.9999 55.209 20.5327C57.4608 18.9791 59.4044 17.0546 60.9482 14.8496L60.9455 14.8469Z" fill="black"/>
</svg>
